# xmcd
#
# Track frame offsets: 
#        182
#        11102
#        24032
#        37095
#        50057
#        63737
#        76670
#        89807
#        102867
#        117332
#        130765
#        144942
#        160275
#        174370
#        188542
#        204695
#
# Disc length: 2912 seconds
#
# Revision: 1
# Processed by: cddbd v1.5.2PL0 Copyright (c) Steve Scherf et al.
# Submitted via: ExactAudioCopy v0.99pb4
#
DISCID=d50b5e10
DTITLE=Various Artist - Grand Prix der Volksmusik 2000 - Deutsche Vorentschei
DTITLE=dung
DYEAR=2000
DGENRE=Volksmusik
TTITLE0=Orchester Erich Becht - So schön ist Volksmusik
TTITLE1=Benjamin Grund - Die erste Liebe, Die ersten rote Rosen
TTITLE2=Margitta und ihre Töchter - Die Liebe trocknet alle Tränen
TTITLE3=Daniela Merk - Ein bisschen Vin -  ein bisschen Amore
TTITLE4=Duo Nirwana - Flieg davon Adlerjunge mit dem Wind
TTITLE5=Brigitte Traeger - Halt mich fest
TTITLE6=Müncher Zwietracht - Heut is net mein Tag
TTITLE7=Marie-Christin - Ich bin super, ich bin Spitze
TTITLE8=Axel Becker - Ich fühl wie du
TTITLE9=Sibylle - Immer nur du 
TTITLE10=Claudia Stern - Kleine Herzen brauchen Liebe
TTITLE11=Marion Pagels - Lebenslänglich
TTITLE12=Günther Behrle - Oh Marie, Heil der Kranken
TTITLE13=Geschwister Hofmann - Stella d'amore
TTITLE14=Willi Seitz - Wenn wir zusammenhalten
TTITLE15=Astrid Harzberger - Wie ein schöne Sinfonie
EXTD=
EXTT0=
EXTT1=
EXTT2=
EXTT3=
EXTT4=
EXTT5=
EXTT6=
EXTT7=
EXTT8=
EXTT9=
EXTT10=
EXTT11=
EXTT12=
EXTT13=
EXTT14=
EXTT15=
PLAYORDER=
